<?xml version="1.0" standalone="no"?>
<!DOCTYPE svg PUBLIC "-//W3C//DTD SVG 20010904//EN"
 "http://www.w3.org/TR/2001/REC-SVG-20010904/DTD/svg10.dtd">
<svg version="1.0" xmlns="http://www.w3.org/2000/svg"
 width="256.000000pt" height="256.000000pt" viewBox="0 0 256.000000 256.000000"
 preserveAspectRatio="xMidYMid meet">
<metadata>
Created by potrace 1.14, written by Peter Selinger 2001-2017
</metadata>
<g transform="translate(0.000000,256.000000) scale(0.100000,-0.100000)"
fill="#000000" stroke="none">
<path d="M1178 2534 c-2 -1 -25 -5 -53 -8 -27 -4 -66 -10 -85 -13 -65 -10
-199 -53 -275 -88 -42 -19 -81 -35 -86 -35 -5 0 -9 -4 -9 -8 0 -5 -15 -16 -32
-25 -30 -15 -52 -28 -82 -49 -24 -16 -164 -140 -198 -175 -20 -21 -59 -69 -87
-108 -28 -38 -55 -74 -59 -80 -21 -29 -76 -143 -106 -221 -85 -222 -102 -459
-52 -720 23 -122 98 -295 182 -422 50 -75 192 -230 265 -288 133 -108 340
-204 524 -244 167 -37 438 -30 575 15 3 1 19 5 35 9 45 11 214 83 260 111 22
14 57 34 78 45 20 11 37 25 37 30 0 5 9 12 21 15 37 12 233 216 291 305 86
129 161 305 182 422 2 15 7 31 9 35 10 16 21 151 21 253 -1 126 -10 199 -40
310 -8 30 -16 60 -18 67 -1 7 -5 16 -9 19 -4 4 -7 13 -7 20 0 8 -11 38 -25 68
-14 30 -25 57 -25 60 0 12 -107 177 -150 231 -81 100 -194 202 -301 272 -130
83 -322 159 -447 177 -24 3 -48 8 -53 12 -9 5 -276 14 -281 8z"/>
</g>
</svg>
